<svg xmlns="http://www.w3.org/2000/svg" xmlns:xlink="http://www.w3.org/1999/xlink" viewBox="0 0 715 506"><defs><clipPath id="a"><rect y="24.14" width="691.4" height="480.39" fill="none"/></clipPath><clipPath id="b"><rect x="-0.02" y="25.61" width="691.4" height="480.39" fill="none"/></clipPath><clipPath id="c"><circle cx="388.18" cy="760.64" r="477.06" fill="#80b94a"/></clipPath></defs><g clip-path="url(#a)"><path d="M1063.89,197.6c-33.94,33.61-50.79,95.68-199,43.53S643.11,52.67,452.56,88.83,272.73,269.31,138.09,223.68C42.52,191.29-31.24,291.59-31.24,291.59L-6,758.57s1079.39-40.37,1094.85-54.69S1063.89,197.6,1063.89,197.6Z" fill="#ecf4d9" opacity="0.5"/><path d="M79.35,138.16c1.17-5.7,9.7-14.48,19-8.64s6.45,18.08-2.52,21.07S76.94,149.92,79.35,138.16Z" fill="#ecf4d9" opacity="0.5"/><path d="M67.29,120.61c1.17-1.85,5.2-3.85,7.48-.6a4.48,4.48,0,0,1-3.71,7.09C67.67,127,64.89,124.44,67.29,120.61Z" fill="#ecf4d9" opacity="0.5"/><path d="M24.19,214.8c.72-1.15,3.23-2.39,4.64-.37a2.78,2.78,0,0,1-2.3,4.4C24.42,218.76,22.69,217.18,24.19,214.8Z" fill="#ecf4d9" opacity="0.5"/><path d="M265.78,162.89c8.7-2.45,30.56-27.64,57.78-45.1s38.34-22.45,30.56-29.68S312.78,93,293.84,113.4C270.78,138.2,257.72,165.15,265.78,162.89Z" fill="#ecf4d9" opacity="0.5"/></g><g clip-path="url(#b)"><path d="M720.48,402.74c1.6-1.7,3.23-4,2.47-6.18-.63-1.85-2.78-2.84-4.74-2.77a13.59,13.59,0,0,0-5.52,1.82q-16,8-31.92,16a255.4,255.4,0,0,0,32.4-30.67c2.29-2.6,18.47-16.78,6.12-18.9-1.75-.3-3.47.54-5,1.42a47.83,47.83,0,0,0-14,12.4q12.62-27.21,22.72-55.5c1-2.79,1.64-6.6-.94-8.13-2.41-1.43-5.36.61-7.25,2.65a55.49,55.49,0,0,0-12.68,22.84,342.9,342.9,0,0,0,6.18-39.82c.31-3.21.21-7.16-2.62-8.76-2-1.16-4.74-.44-6.49,1.1a16.16,16.16,0,0,0-3.7,5.85,225.09,225.09,0,0,0-17.75,67.63c-4.59-15.9-3.08-32.53-4.32-48.88-.17-1.88-.44-4-1.89-5.2-2-1.68-5.19-.8-6.85,1.16s-2.13,4.61-2.52,7.14a376.66,376.66,0,0,0-4.46,65.31c-1.36-7.66-2.22-23.44-8-29.28-8.22-8.32-14.86-.48-15.71,9.2a326.21,326.21,0,0,0-.09,56.43q-5.15-13.72-10.27-27.45c-1.21-3.22-3.39-7.08-6.81-6.71a5.08,5.08,0,0,0-3,1.61c-3,3.14-2.45,8.13-1.7,12.41l4.44,25.46.75,4.29a16.91,16.91,0,0,1,3,1.9L676.13,455l27.24-19.65c2-1.45,4.25-3.91,2.93-6-.9-1.44-2.95-1.59-4.65-1.43-8.35.8-15.9,5-23.18,9.13l25.86-20.25C710,412.36,715.6,407.94,720.48,402.74Z" fill="#d2e7bf"/><path d="M383.88,269.14c1.19-3.29,2.16-7.37.24-10.09-1.61-2.26-4.67-2.48-7-1.31s-4.18,3.43-5.92,5.62q-15.93,20-31.8,40.14a426,426,0,0,0,25.78-61.19c1.63-4.93,15-33.88-1-30.06-2.27.54-4,2.66-5.47,4.76a78.82,78.82,0,0,0-11.5,25.21q3.18-45.39,2.82-90.91c0-4.49-1-10.23-4.78-11-3.6-.69-6.28,3.81-7.67,7.74a97.72,97.72,0,0,0-5.23,39.25A588.6,588.6,0,0,0,322,127.67c-1.06-4.7-3-10.23-7.13-10.93-3-.51-6,2-7.43,5.13s-1.7,6.78-1.89,10.3a393.19,393.19,0,0,0,8.69,105.32c-12.75-19.94-18.36-44.25-27.21-66.67-1-2.56-2.32-5.36-4.65-6.31-3.15-1.28-6.69,1.74-7.83,5.42s-.53,7.69.12,11.48a634.2,634.2,0,0,0,23.87,94.71c-5.1-10.07-13.23-31.89-22.9-37-13.76-7.22-18.34,7.5-15,21.65a539.48,539.48,0,0,0,25.21,79.78L261,307.46c-2.91-3.88-7.3-8.14-11.32-5.72a7.56,7.56,0,0,0-2.95,3.93c-2.26,6.09.65,12.83,3.49,18.47L267,357.66l2.84,5.65a19.8,19.8,0,0,1,4.51,1l78.82,3.05,24.44-42.78c1.8-3.15,3.43-7.86.88-10.11-1.76-1.55-4.32-.63-6.32.54-9.84,5.73-17.17,15.84-24.2,25.66q11.24-21.42,22.48-42.84C375.34,288.53,380.25,279.17,383.88,269.14Z" fill="#d2e7bf"/><path d="M638.35,325.71c1.54-2.11,3-4.84,1.91-7.19-.93-2-3.4-2.76-5.54-2.41a15.23,15.23,0,0,0-5.81,2.78Q612.44,329.92,596,341a288,288,0,0,0,31.56-38.46c2.18-3.2,18.08-21.14,4.29-21.77-2-.09-3.73,1.07-5.29,2.26a53.66,53.66,0,0,0-13.72,15.67q10.33-31.89,17.79-64.6c.74-3.23,1-7.54-2.06-8.87-2.83-1.25-5.79,1.41-7.6,3.94a62.84,62.84,0,0,0-11,27,387.54,387.54,0,0,0,1.69-44.94c-.07-3.6-.69-8-4-9.34-2.38-1-5.24.17-7,2.12s-2.55,4.5-3.3,7a254.85,254.85,0,0,0-10.81,77.35c-7.06-17-7.52-35.6-11-53.53-.43-2.06-1-4.33-2.74-5.5-2.36-1.58-5.79-.16-7.34,2.24s-1.75,5.4-1.86,8.26a424.29,424.29,0,0,0,3.45,72.93c-2.47-8.3-5.42-25.65-12.48-31.32-10.06-8.06-16.33,1.53-16,12.37a367.58,367.58,0,0,0,7.1,62.5l-14.75-29c-1.73-3.4-4.6-7.37-8.31-6.49a5.62,5.62,0,0,0-3.09,2.21c-2.89,3.89-1.65,9.34-.28,14q4,13.79,8.11,27.57c.45,1.55.91,3.1,1.36,4.65a18.7,18.7,0,0,1,3.53,1.67l64.11,18.74,27.33-25.54c2-1.88,4.15-4.92,2.44-7.06-1.18-1.48-3.43-1.36-5.28-.94-9,2-16.77,7.75-24.21,13.32l25.73-26C628.05,337.82,633.66,332.14,638.35,325.71Z" fill="#d2e7bf"/><path d="M27.94,370.59c-1-1.79-2-4.07-.89-5.82a4,4,0,0,1,4.51-1.41,12,12,0,0,1,4.29,2.71q11.9,10.11,23.75,20.27a227.76,227.76,0,0,1-21.33-33c-1.43-2.7-12.3-18.21-1.53-17.49a6.65,6.65,0,0,1,3.93,2.25A42.78,42.78,0,0,1,50,351.6q-5.38-26-8.45-52.35c-.3-2.6-.11-6,2.34-6.79,2.3-.74,4.39,1.62,5.59,3.76a50.39,50.39,0,0,1,6.27,22.23A309.25,309.25,0,0,1,58.22,283c.36-2.82,1.2-6.2,3.89-7,1.93-.58,4.06.6,5.23,2.28a14.53,14.53,0,0,1,2,5.78,204.15,204.15,0,0,1,2,61.77c6.91-12.73,8.82-27.32,13-41.12.51-1.58,1.14-3.32,2.59-4.08,2-1,4.51.38,5.53,2.4s.9,4.41.75,6.66a339.52,339.52,0,0,1-8.77,57C87,360.4,90.73,347,96.69,343.18c8.5-5.45,12.57,2.64,11.43,11.14a293,293,0,0,1-10.73,48.51q6.94-10.74,13.88-21.48c1.63-2.52,4.2-5.39,7-4.37a4.43,4.43,0,0,1,2.22,2c1.92,3.31.5,7.49-1,11L111,411l-1.46,3.54a14.47,14.47,0,0,0-2.88,1l-51.43,9.08q-9.55-11.23-19.12-22.48c-1.4-1.66-2.81-4.23-1.3-5.77,1-1.06,2.78-.77,4.17-.28,6.87,2.4,12.4,7.57,17.72,12.61L38.82,386A126.64,126.64,0,0,1,27.94,370.59Z" fill="#d2e7bf"/><circle cx="388.18" cy="760.64" r="477.06" fill="#80b94a"/><circle cx="388.18" cy="760.64" r="477.06" fill="#80b94a"/><g clip-path="url(#c)"><g opacity="0.6"><path d="M737.73,690.1s-38.1,21-65.48-1.17-8.33,24.5-46.42,2.33-1.2-49-58.34-39.67S435.12,729.32,452,790.44c17.62,63.71,18.2,93.75,64.29,109.68,53.21,18.39,97.61-39.67,101.18,5.83S613.92,971.29,633,1016.8s-31,50.17,10.71,115.51,106.56,56.57,136.32-13.44,30.34-63.57,16.06-112.57,8.33-61.84,40.47-102.68,14.33-66.57-9.52-71.34c-37.78-7.56-72.62-76.84-67.86-106s42.86,79.34,79.76,80.51,95.24-44.34,61.9-58.34-83.33-24.51-69-49,58.33,44.34,101.19,42,55.95,114.35,80.95,117.85,117.85-165.68,69-294-160.71-126-289.27-130.68c0,0-17.86,17.5-38.1,16.33s13.1-21-47.62-32.67-90.47,35-96.42,44.34c0,0-34.52,7-22.62,29.17s34.52,16.34,34.52,16.34,17.86,17.5-26.19,22.17l-26.18,18.66s-42.86,7-36.91,29.17,6,26.84-23.81,38.51-10.71,35,17.86,31.5,30.95-15.17,54.76-33.84,32.32-14.82,46.63,5.89c10.14,14.67,34.3,24.31,58.91,19A24.51,24.51,0,0,1,718.06,658C720.38,669.74,725.86,682,737.73,690.1Z" fill="#b9d98f"/><path d="M298.51,380.3s23.47,1.53,40.68,15.33-46.94,92-3.13,96.62,40.61-22.53,111-30.2,78-68,64.21-95.31c-10.05-19.86-22.1-35.94-85.39-39.66C353.91,322.84,284.43,354.23,298.51,380.3Z" fill="#b9d98f"/><path d="M165.51,522.92s1.57-10.74,26.6-39.87,34.42-15.34,65.72,19.93,43.81,85.88,15.64,85.88-64.15-26.07-61-1.53-34.79,18.95-46.94,24.54c-35.46,16.29-40.68,67.47-64.15,84.34s7.83,52.14-14.08,58.28-15.64-42.94-46.94-38.34S-41,786.69-8.16,788.23s50.07-19.94,59.45-3.07S38.78,828.1,65.38,846.5s20.34-10.73,53.19-13.8S178,848,210.89,875.64s42.24,3.07,48.5,49.07,89.19,19.94,89.19,61.35-29.73,30.67-28.17,82.81-40.68,24.54-57.89,90.48-103.27,85.88-54.76,167.16c0,0-12.52,35.27-43.81-4.6s-15.65-199.37-31.29-240.77-45.38-21.47-59.46-61.35-25-62.87-7.82-90.48,21.9-41.4,0-46-26.6-16.87-62.59-53.68-65.71,16.87-87.62-84.34-92.31-75.15-45.37-144.16S-88,493.78-138,489.18-145.85,434-11.29,426.3,128,452.37,165.51,404.83s103.27-58.27,101.7-35.27-25,21.47-4.69,53.68-7.82,56.74-21.9,41.4-17.22-39.87-32.86-24.53S146.74,507.58,165.51,522.92Z" fill="#b9d98f"/></g></g></g><path d="M495.46,221.54c4.11-3.54,4.78-5.14,8.28-9.51,6.66-8.31,12.07-21,6.33-31.33-2.77-5-10.08-6.58-14.87-3.53-2.07,1.32-3.34,3.57-4.45,5.77-2.56,5.06-4.77,10.46-8.59,14.75-2.8,3.15-14.12,14.9-17.11,17.43a94,94,0,0,1-20.35,13.16,16.63,16.63,0,0,1-5.13,1.73c-3.31.38-6-.41-9.39.23A20.61,20.61,0,0,0,424.9,232c-4.06,1.94-2,7.67-2.43,11.47-.21,1.94-.28,4.12,1,5.61,1.47,1.73.22,3,2.41,2.38A62.67,62.67,0,0,0,436,248c2-1,4.25-3.11,5.82-3.77,5.46-2.3,10.37-2.45,17.76-4.39C469.63,237.16,487.61,228.32,495.46,221.54Z" fill="#ffd5b3"/><path d="M380.21,148.16c9-4,17.94-5,20-2.22s-2.2,10.8-9.46,17.84-16.21,8-20,2.21S371.21,152.2,380.21,148.16Z" fill="#22ac38"/><path d="M382.93,161.56a179,179,0,0,1,26.82-22" fill="#c16e42" stroke="#e08800" stroke-linecap="round" stroke-miterlimit="10" stroke-width="0.75"/><path d="M421.26,103.31s-9.22-25.4-6.08-25.62,7.89,10.18,8.56,15.27S421.26,103.31,421.26,103.31Z" fill="#22ac38"/><path d="M419.24,93.19c-.14,9.07,5.85,17.74,5.36,26.8" fill="#c16e42" stroke="#e08800" stroke-linecap="round" stroke-miterlimit="10" stroke-width="0.66"/><path d="M457.53,152.55s15.37-25.39,29.73-13.91S457.53,152.55,457.53,152.55Z" fill="#22ac38"/><path d="M469.39,164.31c-7.34-3.41-12.79-8.36-12.17-11.06s7.78-4.21,16-3.39,13.67,5.77,12.17,11.06S476.73,167.72,469.39,164.31Z" fill="#22ac38"/><path d="M447.22,156.26a8.23,8.23,0,0,1,6.17-1.88,4.07,4.07,0,0,0,2.58-.31c.91-.47,1.83-.89,2.74-1.25a26.39,26.39,0,0,1,5.62-1.53" fill="none" stroke="#e08800" stroke-linecap="round" stroke-miterlimit="10" stroke-width="0.4"/><path d="M441.33,144.86s6.28-22.08-1.84-23.58S441.33,144.86,441.33,144.86Z" fill="#22ac38"/><path d="M441.51,144s22.47-24.31,9.83-29.09S441.51,144,441.51,144Z" fill="#22ac38"/><path d="M443,132.87a264.08,264.08,0,0,0-3.16,28.75" fill="#c16e42" stroke="#e08800" stroke-linecap="round" stroke-miterlimit="10" stroke-width="0.59"/><path d="M466.62,128c-1.8,2.22-3.9,4.15-5.75,6.32l-5.58,6.51c-3.81,4.45-7.55,9-11.28,13.49s-7.3,8.81-10.93,13.23c-1.71,2.09-3.4,4.2-5.1,6.31,0-1.32.5-7.48.29-10-.53-6.44-.29-12.87-.3-19.32a147.9,147.9,0,0,0-2.32-27.12c-.24-1.31-.26-4-1.36-4.69-1.68,1.32-.89,7-.84,9.08.25,9.69,0,20.31,0,30-2.4-2.3-20.95-22.15-23.78-24.27-.82-.61-2,.61-1.43,1.42,1.91,2.53,3.73,5.08,5.8,7.5s4.39,5,6.65,7.43c2.88,3.1,5.85,6.11,8.6,9.32a16.43,16.43,0,0,1,2.27,3.13c1.54,3,1.34,6.62,1.32,9.9,0,3.8-.06,7.6-.1,11.39q-.12,11.4-.29,22.79c-.21,15.2-.43,30.4-.48,45.6,0,2.36,0,4.72,0,7.07.38,33.23.56,66.46.24,99.69-.24,24.5-.33,49.07-2.14,73.48a24.63,24.63,0,0,1-4.24,14,21.44,21.44,0,0,1-3.65,3.36c-1.49,1.31-2.79,2.83-4.31,4.12-1.27,1.07-2.76,1.84-4.09,2.83s-2.57,1.68-3.21,3.1a.45.45,0,0,0-.06.32c.08.3.51.23.78.09,2.57-1.29,5.11-2.61,7.64-4,2.85-1.53,2.43,2.67,2.41,4.37a60.48,60.48,0,0,1-.81,8.39.49.49,0,0,0,.95.27c.28-.69.52-1.38.74-2.08a.89.89,0,0,1,1.29.12,2.62,2.62,0,0,1,.34,1.72c-.05,1.52-.05,3,0,4.55a.54.54,0,0,0,1.08,0c.12-1,.23-2.07.35-3.11a11.68,11.68,0,0,0,.11-2.83,3,3,0,0,0-2.6-2.71,39.47,39.47,0,0,0,.76-5.63,20.84,20.84,0,0,1,1.36-6.63c.6-1.33,1.75-3,3.38-2.95h.05a3,3,0,0,1,2.46,2.72,48.45,48.45,0,0,1,.24,12c-.53,4.1-1.82,8.1-2.54,12.19-.05.3,0,.72.27.79s.4-.13.54-.31c2.07-2.61,2.31-6.29,3.72-9.23.31-.64,1.18-2.63,2.14-1.74a1.79,1.79,0,0,1,.41.69,15.51,15.51,0,0,1,.75,2.49c.13.6.3,1.3.86,1.55a.3.3,0,0,0,.21,0c.15,0,.19-.25.19-.41.08-2.07.29-4.29-.89-6.1a13,13,0,0,1-1.57-4.91c-.36-2.4-1-5.7,0-8,.9-2.15,3.75-3.06,6-2.37a6.64,6.64,0,0,1,2.23,1.41,6,6,0,0,1,2.12,2.92c.39,1.64-.52,3.26-1,4.88-.7,2.42-.27,7.38.8,7.32.58.3,1-2.43,1.08-3.77.06-2,1-6.16,3.35-5.14.62.76,1.28,1.5,1.93,2.24a21.29,21.29,0,0,0-1.42,4,27.56,27.56,0,0,0-.92,10.57c.08.74,1.23.78,1.19,0a23.63,23.63,0,0,1,3-12.33,9.61,9.61,0,0,1,1.61,3,.46.46,0,0,0,.09.17c.13.42.25.84.36,1.27a.43.43,0,0,0,.83-.12,12,12,0,0,0-1.41-5.92c-.79-1.41-2-2.67-2.83-4.06-.11-.18-.24-.34-.35-.51,2.83-.66,5.91-.69,8.26,1.28a.62.62,0,0,0,1-.76.59.59,0,0,0-.14-.33,9.06,9.06,0,0,0-5.39-2.77,27.9,27.9,0,0,0-3.27-.44c-.46,0-2.61.1-2.9-.24a4.83,4.83,0,0,0-.41-.49,46,46,0,0,1-3.7-3.69c-.23-.32-.48-.63-.71-1a50.3,50.3,0,0,1-2.75-4.57c-.23-.41-.44-.84-.65-1.26s-.25-.61-.37-.92l-.25-.6a67.46,67.46,0,0,1-.71-9c-.2-5.7.44-27.22.43-32.36q0-18.35,0-36.7L428,258V182.5c1.41-1.45,2.59-3.21,3.83-4.75,1.8-2.23,3.61-4.45,5.4-6.69,3.57-4.48,7.11-9,10.67-13.49,3.42-4.31,6.84-8.62,10.18-13l5.18-6.8c1.91-2.5,3.54-5.21,5.51-7.65C470,128.62,467.84,126.48,466.62,128Z" fill="#c16e42"/><path d="M390.19,165.86a97.93,97.93,0,0,0,.1-11" fill="#c16e42" stroke="#e08800" stroke-linecap="round" stroke-miterlimit="10" stroke-width="0.75"/><path d="M414.06,124.05s-24.1-10.8-18.58-20.37S414.06,124.05,414.06,124.05Z" fill="#22ac38"/><path d="M408.64,115.71c6,7.92,9.45,17.6,15.62,25.41" fill="#c16e42" stroke="#e08800" stroke-linecap="round" stroke-miterlimit="10" stroke-width="0.75"/><path d="M150.1,249.73s10.1-10.28,6.87-15.88-5.21,2.66-6.64,5.89S150.1,249.73,150.1,249.73Z" fill="#22ac38"/><path d="M152.1,241.14c.1,6.24-4,12.21-3.69,18.46" fill="#c16e42" stroke="#e08800" stroke-linecap="round" stroke-miterlimit="10" stroke-width="0.45"/><path d="M136.89,276.72s-4.33-15.21,1.27-16.24S136.89,276.72,136.89,276.72Z" fill="#22ac38"/><path d="M123.48,270.25S105.11,249.18,111.15,249,123.48,270.25,123.48,270.25Z" fill="#22ac38"/><path d="M135.77,268.46a183.57,183.57,0,0,1,2.18,19.8" fill="#c16e42" stroke="#e08800" stroke-linecap="round" stroke-miterlimit="10" stroke-width="0.41"/><path d="M119.47,265.1c1.24,1.53,2.68,2.86,4,4.36l3.84,4.48c2.63,3.06,5.2,6.17,7.77,9.29s5,6.06,7.53,9.11c1.18,1.44,2.34,2.9,3.51,4.34,0-.9-.34-5.15-.2-6.88.37-4.44.2-8.87.21-13.31a101.76,101.76,0,0,1,1.6-18.67c.16-.9.17-2.72.94-3.23,1.15.91.61,4.78.57,6.25-.17,6.67,0,14,0,20.67,1.66-1.58,14.44-15.25,16.38-16.71.56-.42,1.41.42,1,1-1.31,1.74-2.56,3.5-4,5.16s-3,3.44-4.58,5.12c-2,2.13-4,4.21-5.92,6.42a11.46,11.46,0,0,0-1.57,2.16c-1.05,2.07-.92,4.56-.9,6.81,0,2.62,0,5.23.06,7.85q.09,7.84.2,15.69c.15,10.47.3,20.94.34,31.41,0,1.62,0,3.24,0,4.86-.26,22.89-.39,3.76-.17,26.65.17,16.87.23,8.73,1.48,25.54a16.91,16.91,0,0,0,2.92,9.64,14.77,14.77,0,0,0,2.51,2.31c1,.9,1.92,2,3,2.84.87.74,1.9,1.27,2.82,1.95a6.18,6.18,0,0,1,2.21,2.13.37.37,0,0,1,0,.23c0,.2-.35.15-.54.06q-2.66-1.33-5.26-2.74c-2-1.05-1.67,1.84-1.66,3a41.43,41.43,0,0,0,.56,5.78.34.34,0,0,1-.66.18c-.19-.47-.36-.95-.51-1.43a.61.61,0,0,0-.88.08,1.83,1.83,0,0,0-.24,1.19c0,1,0,2.09,0,3.14a.37.37,0,0,1-.74,0l-.24-2.15a8,8,0,0,1-.08-1.95,2.08,2.08,0,0,1,1.79-1.87A26.48,26.48,0,0,1,156,422a14.26,14.26,0,0,0-.93-4.57c-.41-.91-1.21-2-2.33-2h0a2.06,2.06,0,0,0-1.7,1.87,33.35,33.35,0,0,0-.16,8.29c.36,2.82,1.25,5.58,1.75,8.39,0,.21,0,.5-.19.55s-.28-.09-.37-.21c-1.43-1.8-1.59-4.33-2.57-6.36-.21-.44-.81-1.81-1.47-1.2a1.22,1.22,0,0,0-.28.48,11.25,11.25,0,0,0-.52,1.71c-.09.41-.2.9-.59,1.07a.22.22,0,0,1-.14,0c-.11,0-.13-.17-.14-.28-.05-1.43-.19-3,.62-4.21a8.88,8.88,0,0,0,1.08-3.38c.25-1.65.7-3.92,0-5.53a3.42,3.42,0,0,0-4.11-1.63,4.39,4.39,0,0,0-1.53,1,4.14,4.14,0,0,0-1.47,2c-.26,1.13.36,2.24.68,3.36.49,1.66.19,5.08-.55,5-.39.2-.71-1.68-.74-2.6,0-1.37-.72-4.24-2.3-3.54-.43.52-.89,1-1.34,1.55a14.27,14.27,0,0,1,1,2.72,19,19,0,0,1,.64,7.28c-.06.51-.85.54-.82,0a16.3,16.3,0,0,0-2.07-8.49,6.68,6.68,0,0,0-1.11,2.09.24.24,0,0,1-.06.11c-.09.29-.17.58-.25.88a.29.29,0,0,1-.57-.08,8.27,8.27,0,0,1,1-4.08c.55-1,1.36-1.84,2-2.8l.24-.35c-1.95-.45-4.07-.47-5.69.88a.42.42,0,0,1-.66-.52.37.37,0,0,1,.09-.23,6.25,6.25,0,0,1,3.72-1.9,16.91,16.91,0,0,1,2.25-.31c.32,0,1.79.07,2-.16a3.17,3.17,0,0,1,.28-.34,32.16,32.16,0,0,0,2.55-2.54c.16-.22.34-.44.49-.66a34.63,34.63,0,0,0,1.9-3.15l.45-.87c.08-.21.16-.42.25-.63s.11-.28.17-.42a45.62,45.62,0,0,0,.49-6.21c.14-3.93,1.24-47.31,1.24-47.31q0-26,0-52c-1-1-1.78-2.21-2.64-3.27q-1.86-2.3-3.71-4.6c-2.46-3.09-4.9-6.2-7.35-9.29s-4.71-5.94-7-9l-3.57-4.68c-1.31-1.72-2.44-3.59-3.8-5.27C117.17,265.54,118.63,264.06,119.47,265.1Z" fill="#c16e42"/><path d="M159.56,273.88s17.89,3.26,18.49-4.33S159.56,273.88,159.56,273.88Z" fill="#22ac38"/><path d="M132.37,284.23s-10.59-17.49-20.48-9.58S132.37,284.23,132.37,284.23Z" fill="#22ac38"/><path d="M132.83,284.57a5.61,5.61,0,0,0-4.25-1.29,2.83,2.83,0,0,1-1.78-.22c-.62-.32-1.25-.61-1.88-.86a18.24,18.24,0,0,0-3.87-1.05" fill="none" stroke="#e08800" stroke-linecap="round" stroke-miterlimit="10" stroke-width="0.28"/><path d="M421.59,254.36a3.29,3.29,0,0,0-.76-2.77,3.93,3.93,0,0,0,1,.57,1.36,1.36,0,0,0,1.1,0,1.39,1.39,0,0,0,.35-.29,2.5,2.5,0,0,0,.57-2.07c0-.27-.32-.72.06-.86s.82.23,1.1.24c1.44,0,1.78-1.28,1.27-2.41a7.34,7.34,0,0,0-1-1.45,4.34,4.34,0,0,0,1.36.49,1.48,1.48,0,0,0,1.32-.43,1.6,1.6,0,0,0,.32-.81,4.12,4.12,0,0,0-1.31-3.24,20.86,20.86,0,0,0-2.19-1.9,6.38,6.38,0,0,1-1.61-1.38,6.88,6.88,0,0,1-1.23-4.69,7.29,7.29,0,0,0,.13-1.61c-.05-.47-3,1.11-3.26,1.31-1.17,1-1.09,2.09-.67,3.52a1,1,0,0,0-1.53,0,2.34,2.34,0,0,0-.52,1.63,6.4,6.4,0,0,0,.63,2.79,1.07,1.07,0,0,0-1.39.56,2.45,2.45,0,0,0,0,1.65,9.61,9.61,0,0,0,1.49,3.17,1.23,1.23,0,0,0-1.24.7,2.65,2.65,0,0,0-.29,1.52,7.59,7.59,0,0,0,2.41,4.59c.71.73,1.71,1.95,2.83,1.94A1.05,1.05,0,0,0,421.59,254.36Z" fill="#ffd5b3"/><path d="M429.34,232.29c.11,2.1-1.7,3.73-3.06,5.33a2.44,2.44,0,0,0-.57.95,1.62,1.62,0,0,0,.85,1.7,2.9,2.9,0,0,0,2,.18c3.48-.77,4.49-4.86,7-6.94" fill="#ffd5b3" stroke="#ffc7a1" stroke-linecap="round" stroke-miterlimit="10" stroke-width="0.79"/><path d="M416.78,246.31a43.08,43.08,0,0,0,4.29,5.67" fill="none" stroke="#ffc7a1" stroke-linecap="round" stroke-miterlimit="10" stroke-width="0.79"/><path d="M423.55,248.87c-2-2.72-4.86-4.57-6.83-7.94" fill="none" stroke="#ffc7a1" stroke-linecap="round" stroke-miterlimit="10" stroke-width="0.79"/><path d="M418.23,236.82a45.57,45.57,0,0,0,7.22,8.75" fill="none" stroke="#ffc7a1" stroke-linecap="round" stroke-miterlimit="10" stroke-width="0.79"/><path d="M552.69,374.36a100.82,100.82,0,0,0,24.11-3.64c1.32-.37,2.63-.78,3.94-1.2-.1-2.48-.21-5-.31-7.44-.64-10.36.34-25.08-6.36-33.45a17,17,0,0,1-2.5-3.49,12.2,12.2,0,0,1-.72-4.86l-.6-43.15c0-3.6-.11-7.28-1.39-10.6s-4-6.27-7.71-6.86c-3.3-.53-6.8.93-9.36,3.19a26.07,26.07,0,0,0-5.77,8.19c-7,14.13-9.14,29.73-11.19,45a60.77,60.77,0,0,0-.82,12.16,59.24,59.24,0,0,0,2.33,11.5c2.38,8.71,6.59,21.52,11.16,34.64C549.23,374.4,551,374.41,552.69,374.36Z" fill="#ffd5b3"/><path d="M580.43,362.08c-7.12,4.16-26.55,8.68-35.25,8,5.16,13.93,21.52,56.23,22,56.6,1.82,1.37,6.73,4,9,3.39,5-1.33,5.82-5.51,5.75-12.92C582.23,411,581.83,373.06,580.43,362.08Z" fill="#fdd762"/><path d="M582.62,421.92a40.83,40.83,0,0,1-7.77.4,32.07,32.07,0,0,1-11.36-2.14c-1.32.62-2.8,2-4.29,2.53l-15.41,5.63a61.36,61.36,0,0,0-11.18,5,4.3,4.3,0,0,0-2,1.95c-1.22,3.59,9,2.49,11.09,2.47,5.49,0,11-.51,16.44-.57,4.63,0,9.27.07,13.9-.14,2.76-.13,7.06,1,9.21-.91,1.67-1.45,1.75-4.4,1.41-6.2A28.37,28.37,0,0,1,582.62,421.92Z" fill="#3e3a39"/><path d="M613.4,369.93a79.2,79.2,0,0,0,10.07-1.16c4.27-.73,8.51-1.67,12.76-2.53,2.91-.6,5.83-1.09,8.75-1.65,1-.18,1.92-.38,2.87-.59l-.09-2.24c-.64-10.35-.78-19.29-5.06-28.92-3.94-8.87-9.21-17.29-11.09-27-1-5.28-1-10.76-1.66-16.11-1.07-8.38-4.92-15.28-7.35-23.12-1.85-6-4.3-12.48-11.64-13.88-5.75-1.1-12,2.38-15.29,7.24s-4.31,10.81-4.33,16.49c0,11.61,3.8,22.44,4.84,33.85.92,10.12,2.78,19.21,7.07,28.49,2.61,5.63,3.87,12.23,5.81,18.17C610.47,361.33,611.93,365.63,613.4,369.93Z" fill="#ffd5b3"/><path d="M647,358.1c-7.13,4.16-26.55,8.68-35.25,8,5.16,13.93,21.77,58.76,22.27,59.14,1.83,1.36,6.49,1.46,8.81.85,5-1.33,6,2.63,6-4.78C649,415.11,649.51,371.1,647,358.1Z" fill="#fdd762"/><path d="M650,421.61a41.71,41.71,0,0,1-7.77.4,32.52,32.52,0,0,1-11.36-2.14c-1.32.62-2.8,2-4.29,2.52L611.12,428a61.11,61.11,0,0,0-11.19,5,4.3,4.3,0,0,0-1.95,1.94c-1.23,3.59,9,2.49,11.08,2.47,5.5-.05,11-.51,16.44-.56,4.64-.05,9.28.07,13.91-.15,2.75-.13,7.06,1,9.21-.9,1.67-1.46,1.75-4.41,1.41-6.21A28.3,28.3,0,0,1,650,421.61Z" fill="#3e3a39"/><path d="M599.42,208.87c-5.34-4.74-11.07-9.58-18.08-11.29-6.84-1.66-11.83,0-17.46,2.69-12.45,5.94-16.1,14.07-20.14,26.51-10.58,32.61-14.75,60.45-13.12,93.94,15,.43,27.85-1.69,47.1-2.1-2-17-1.61-34.47-.57-51.68,3.21,3.87,11.62,38.38,12.32,47.55a1.87,1.87,0,0,0,2.25,1.69c9.93-2,31.54-5.51,45.48-9.84C637,303.91,627.74,234,599.42,208.87Z" fill="#e08800"/><path d="M577.83,267.67a139,139,0,0,1-4.47-14.42" fill="none" stroke="#c16e42" stroke-linecap="round" stroke-miterlimit="10" stroke-width="0.79"/><path d="M587,218.13a12.13,12.13,0,0,0,9.12,2.44,19.55,19.55,0,0,0,9.15-3.75" fill="none" stroke="#c16e42" stroke-linecap="round" stroke-miterlimit="10" stroke-width="0.79"/><path d="M545.15,237.87a10.52,10.52,0,0,1-2.72,6.43,29.66,29.66,0,0,1-5.5,4.78" fill="none" stroke="#c16e42" stroke-linecap="round" stroke-miterlimit="10" stroke-width="0.79"/><path d="M507.2,155.14a1.3,1.3,0,0,1,.31.39l-.3.12Z" fill="#595757"/><path d="M552.17,233.6a64.84,64.84,0,0,0,14.54-8.75,70.58,70.58,0,0,0,22.38-29,1.91,1.91,0,0,0-.28-1.91q-3-3.79-6-7.57-4.5-5.58-9.09-11.09c-5.62-6.75-11.15-15-17.89-20.65a121.43,121.43,0,0,0-15.67-11.21,18.8,18.8,0,0,0-20.4.25c-7.16,4.46-13.86,11.67-19.61,17.82a87.82,87.82,0,0,0-15.43,22.74c-.54,1.15-1.06,2.32-1.66,3.45-1.14,2.14,19.76,19,24.18,22.57a.87.87,0,0,0,1.29-.24c1.71-2.75,3.8-4.79,5.74-7.31a271.29,271.29,0,0,1,18.39,33.42c1.27,2.77,16.22-1.27,18.4-2.09C551.4,233.91,551.79,233.76,552.17,233.6Z" fill="#f8b500"/><path d="M545.56,151.75a16.46,16.46,0,0,0-10.6-5c-10-.55-9.16,7.82-12.2,15.43-1.51,3.82-5.63,14.45-22.34,12.4A133.05,133.05,0,0,1,479.79,170l-20.63-6c-4.27-1.25-8.1-2.66-12.5-3a25.58,25.58,0,0,0-10.9,1.05c-2.36.9-5.72,2.85-5.55,5.85s3.5,5.54,6.07,6.45a25.34,25.34,0,0,0,8.21,1c2.76,0,5.87.15,8.51,1.36,3.22,1.46,6.33,4.06,9.3,6,12.11,8,24.58,14.89,38.66,17.49,5.94,1.1,12.05,1.52,17.74.15,11-2.64,18.93-11.48,25.62-20.38,3.17-4.22,6.31-8.82,6.75-14.25A18,18,0,0,0,545.56,151.75Z" fill="#ffd5b3"/><path d="M521.48,142.62c6.66-4.33,14.86-7.13,22.87-5.87,3.14.5,7,1.55,9.13,4.05a19.2,19.2,0,0,1,4,9.49,75.67,75.67,0,0,1,.37,14.9c-.14,3.06.47,8.65-3.87,8-5.23-.77-13.45-2.3-18.56-3.61-1.3-.33-16.38-3.87-16.38-3.87s5-13.86,5.66-17.68" fill="#f8b500"/><path d="M431.05,165.15c3.76-1.11,7.83-1.09,11.83-1" fill="#ffc7a1" stroke="#eb6164" stroke-linecap="round" stroke-miterlimit="10" stroke-width="0.79"/><path d="M442.69,167.11a89.21,89.21,0,0,1-12.25.61" fill="#ffc7a1" stroke="#eb6164" stroke-linecap="round" stroke-miterlimit="10" stroke-width="0.79"/><path d="M431.36,170.66a35.12,35.12,0,0,0,11.93.72" fill="#ffc7a1" stroke="#eb6164" stroke-linecap="round" stroke-miterlimit="10" stroke-width="0.79"/><path d="M480.21,134a8.9,8.9,0,0,1,.05-3.37,35.73,35.73,0,0,1,2.28-6.92A12.32,12.32,0,0,1,497,116.08c4.31,1,8.22,4.42,12.6,3.71,2.41-.39,4.85-2,7.1-1,1.83.79,2.6,3,2.67,5s-.34,4,0,6c.26,1.37.88,2.72.62,4.08s-1.57,2.56-2.76,3.5c-3.17,2.5-6.88,6.68-11.09,7.21a28,28,0,0,1-4.84-.14c-1.77-.1-3.5.5-5.26.57-2.66.11-5.56.64-8-.35C484.07,143,481.34,138.41,480.21,134Z" fill="#3e3a39"/><path d="M503.55,153.17c-.3-.4-.61-.78-.93-1.15a3.64,3.64,0,0,0-1.77-1.31,6.1,6.1,0,0,0-2.42.22c-2.8.45-5.07-1.21-7.07-2.83a21.38,21.38,0,0,1-5.44-6.69c-1.47-2.81-4.4-6.67-3.7-9.92.58-2.7,4.43-4.59,7.12-5.55a10.15,10.15,0,0,1,4.79-.41c1.85.24,4.67.8,6.1,2,1,.86,2,1.73,3,2.62,2.56,2.3,4,5.55,6.28,8.15a42.8,42.8,0,0,0,6.95,6.43,2.13,2.13,0,0,0,1.71.37q.42,2.88.82,5.78c.4,2.82.77,6.45-.68,9s-4.35,3-6.78,1.9C507.89,160.16,505.92,156.29,503.55,153.17Z" fill="#ffd5b3"/><path d="M481.75,129a19.29,19.29,0,0,1,2.76-5.53,9.79,9.79,0,0,1,3.22-3.18,10.76,10.76,0,0,1,6.8-1.3c2.11.45,3.77,2.18,5.88,2.74s4.1.87,5.39,2.94a5.36,5.36,0,0,1,.76,3.31,7.48,7.48,0,0,1-1.53,4.29c-.69.73-1.19.32-2,.07a3,3,0,0,0-2.43.32c-.76.43-1.71,1-2.59.56-.22-.13-1.41-1.76-1.11-1.92-.56.3-.84,1-1.44,1.17a1.58,1.58,0,0,1-1.39-.46,4.44,4.44,0,0,1-1-1.29c-.29-.54-.51-1.19-1-1.49a1.62,1.62,0,0,0-1.73.24,4.7,4.7,0,0,0-1.12,1.45c-.55.94-1.09,1.88-1.58,2.84a16.82,16.82,0,0,1-1.42,2.52,11.32,11.32,0,0,1-1.71,1.68,8.93,8.93,0,0,1-2.11,1.38c-1.29.53-4,.28-3.94-1.7a3.62,3.62,0,0,1,1-1.94,9.7,9.7,0,0,0,1.85-4.32A20.35,20.35,0,0,1,481.75,129Z" fill="#3e3a39"/><path d="M504,128.23a.33.33,0,0,0,0-.25,2.93,2.93,0,0,0-.65-.74,14.17,14.17,0,0,0-6-4.58,12.83,12.83,0,0,0-7.92-.11,39.21,39.21,0,0,0-6.09,2.29,9.76,9.76,0,0,0-2.47-7.81c-1.94,1.13-1.76,3.21-1,5,.33.85.76,1.66,1.12,2.49a7.66,7.66,0,0,0-2.05-.8,8.68,8.68,0,0,0-3.33,0c-1,.18-2,1-1.4,2.11a1.72,1.72,0,0,0,1.45.77c.6,0,1.21,0,1.81,0,1.36,0,2.68.2,4,.07a5.16,5.16,0,0,0-1.06,2.24,6.17,6.17,0,0,0-.33,1.08c-.05.29.09,1,0,1.26a11.47,11.47,0,0,1,1.94-2.73c1.8-1.71,4.47-2,6.94-2.31a13.79,13.79,0,0,1,8.57,2,13.83,13.83,0,0,0,2.28,1.4,6.44,6.44,0,0,0,2.72-.11l.15.1C503.48,130.22,504.53,129.08,504,128.23Z" fill="#eb6164"/><path d="M499.6,134.93a6.32,6.32,0,0,1-1-2.57,3.38,3.38,0,0,1,.61-2.58,3.72,3.72,0,0,1,1.82-1.15,5.25,5.25,0,0,1,6.52,3.45,3.68,3.68,0,0,1-.51,3.13,9.23,9.23,0,0,1-1.72,1.7" fill="#ffd5b3"/><path d="M491.38,144.93l6.76-3.49C498.72,143,496.46,148.91,491.38,144.93Z" fill="#ffc7a1"/><path d="M499.41,150.37a16.31,16.31,0,0,0,3.47-2.89c.05.88.24,1.73.29,2.6a10,10,0,0,0,.19,2.85,18.37,18.37,0,0,0-1.28-1.37,3.69,3.69,0,0,0-1.32-.88,3.79,3.79,0,0,0-2.25.15l-.08,0C498.76,150.7,499.09,150.55,499.41,150.37Z" fill="#ffc7a1"/><path d="M501.55,130.83a3.69,3.69,0,0,0-.94,1.93,3.25,3.25,0,0,0,1.15,2.18" fill="none" stroke="#ffc7a1" stroke-linecap="round" stroke-miterlimit="10" stroke-width="0.79"/><path d="M602.58,327.64a9.61,9.61,0,0,0,4.09,4" fill="none" stroke="#ffc7a1" stroke-linecap="round" stroke-miterlimit="10" stroke-width="1"/><path d="M538.09,334.33a9,9,0,0,1,5.5,4.47" fill="none" stroke="#ffc7a1" stroke-linecap="round" stroke-miterlimit="10" stroke-width="1"/><path d="M525.6,152.9c-1.82,4.32-3.62,8.51-5.44,12.82,13.47,4.16,25.67,5.81,35.82,7.7l2-16.08" fill="none" stroke="#e08800" stroke-linecap="round" stroke-miterlimit="10" stroke-width="1.21"/><path d="M392.55,391.3a16.53,16.53,0,0,0,.07,2.11c.2,2.06.95,5.53,3.17,6.3a4.88,4.88,0,0,0,5.32-2.14c3.16-4.57,1.38-10.74.18-15.6q-1.12-4.59-2.57-9.09-.72-2.25-1.53-4.48c-.32-.91-1.57-2.93-1.45-3.86q-1.39,11.1-2.78,22.2A43.88,43.88,0,0,0,392.55,391.3Z" fill="#cfebf8"/><rect x="276.58" y="348.59" width="12.13" height="22.97" rx="5.39" transform="translate(594.32 695.34) rotate(175.22)" fill="#cce7f3"/><path d="M278.36,371.08a5.69,5.69,0,0,1-2-3.88l-1.1-13.1a5.74,5.74,0,0,1,5.23-6.18l2.28-.19a5.74,5.74,0,0,1,6.18,5.23l1.1,13.09a5.74,5.74,0,0,1-5.23,6.18l-2.28.19a5.62,5.62,0,0,1-4.17-1.34Zm4.54-21.74-2.29.19a4.07,4.07,0,0,0-2.79,1.44,4.12,4.12,0,0,0-1,3L278,367.06a4.15,4.15,0,0,0,4.44,3.76l2.29-.19a4.12,4.12,0,0,0,3.75-4.45l-1.09-13.09a4.08,4.08,0,0,0-1.45-2.79,3.94,3.94,0,0,0-1.23-.72A4,4,0,0,0,282.9,349.34Z" fill="#8bcae8"/><path d="M289.05,363.86l.53,6.33,2.07-.17a5.16,5.16,0,1,1,.86,10.29l-9,.76a5.17,5.17,0,0,1-5.58-4.72l-1-11.48Z" fill="#fdd762"/><path d="M277.12,376.42l-1-12.29L289.78,363l.53,6.33,1.27-.11a6,6,0,0,1,1,11.91l-9,.75a5.82,5.82,0,0,1-2.57-.35A6,6,0,0,1,277.12,376.42Zm14.59-5.6-2.87.24-.53-6.33-10.48.87.89,10.68a4.37,4.37,0,0,0,4.71,4l9-.76a4.33,4.33,0,0,0,3-1.53,4.36,4.36,0,0,0-3.7-7.16Z" fill="#f8b500"/><rect x="246.44" y="349.29" width="12.13" height="22.97" rx="5.39" transform="translate(460.3 749.04) rotate(-173.17)" fill="#cce7f3"/><path d="M246.09,370.7a5.68,5.68,0,0,1-1.19-4.21l1.57-13.05a5.72,5.72,0,0,1,6.36-5l2.27.27a5.74,5.74,0,0,1,5,6.36l-1.56,13.05a5.73,5.73,0,0,1-6.36,5l-2.28-.27a5.64,5.64,0,0,1-3.81-2.15Zm8.82-20.39-2.27-.27a4.12,4.12,0,0,0-4.58,3.59l-1.56,13.05a4.07,4.07,0,0,0,.85,3,4.11,4.11,0,0,0,2.74,1.55l2.28.27a4.11,4.11,0,0,0,4.57-3.59l1.56-13.05a4.07,4.07,0,0,0-.85-3,3.83,3.83,0,0,0-.79-.77A4.13,4.13,0,0,0,254.91,350.31Z" fill="#8bcae8"/><path d="M258,366l-.73,6.12,2.06.25a5.17,5.17,0,1,1-1.23,10.26l-9-1.07a5.18,5.18,0,0,1-4.52-5.75L246,364.51Z" fill="#fdd762"/><path d="M245,380.07a5.9,5.9,0,0,1-1.24-4.4l1.44-12.05,13.64,1.63-.73,6.13,1.27.15a6,6,0,0,1,5.21,6.64,6,6,0,0,1-6.63,5.22l-9-1.08a5.85,5.85,0,0,1-2.84-1.12A5.76,5.76,0,0,1,245,380.07Zm14.18-6.94-2.86-.35.74-6.12-10.45-1.25-1.25,10.46a4.37,4.37,0,0,0,3.81,4.85l9,1.07a4.36,4.36,0,0,0,3.94-7,4.31,4.31,0,0,0-2.91-1.63Z" fill="#f8b500"/><path d="M287.22,354.74a36.79,36.79,0,0,0-2.37-73.43A30.25,30.25,0,0,0,230,299.19a30.28,30.28,0,0,0,8.63,59.86Z" fill="#cce7f3"/><path d="M294.62,354.15a38.2,38.2,0,0,1-7.32,1.39l-48.58,4.31a31.09,31.09,0,0,1-9.5-61.32,31.06,31.06,0,0,1,56-18,37.6,37.6,0,0,1,9.35,73.64Zm-7.47-.21a36,36,0,0,0-2.32-71.83h-.4l-.23-.32a29.44,29.44,0,0,0-53.37,17.4v.67l-.65.13a29.48,29.48,0,0,0,8.4,58.27Z" fill="#8bcae8"/><path d="M314.44,312.46l13.23-4.09a4.52,4.52,0,0,0,3-5.64h0a4.54,4.54,0,0,0-5.65-3l-13.23,4.09" fill="#cce7f3"/><path d="M314.34,313.26a.81.81,0,0,1-.67-.56.8.8,0,0,1,.53-1l13.23-4.1a3.71,3.71,0,0,0-2.19-7.08L312,304.61a.81.81,0,0,1-1-.53.82.82,0,0,1,.53-1L324.77,299a5.32,5.32,0,0,1,3.14,10.16l-13.23,4.09A.67.67,0,0,1,314.34,313.26Z" fill="#8bcae8"/><circle cx="286.93" cy="306.78" r="9.39" fill="#f7d8d7"/><circle cx="245.72" cy="313.6" r="9.39" fill="#f7d8d7"/><ellipse cx="274" cy="296.32" rx="7.12" ry="7.98" transform="translate(-49.5 55.01) rotate(-10.52)" fill="#fff"/><ellipse cx="252.57" cy="299.56" rx="7.12" ry="7.98" transform="translate(-50.45 51.15) rotate(-10.52)" fill="#fff"/><ellipse cx="276.3" cy="297.45" rx="4.13" ry="4.98" transform="translate(-49.67 55.45) rotate(-10.52)" fill="#0d74b4"/><ellipse cx="254.88" cy="300.43" rx="4.13" ry="4.98" transform="translate(-50.57 51.59) rotate(-10.52)" fill="#0d74b4"/><path d="M269,318a7.7,7.7,0,0,1-8.51-4.3l-.85.54a.92.92,0,0,1-1.26-.29.91.91,0,0,1,.29-1.26l1.75-1.11a.94.94,0,0,1,.8-.08.91.91,0,0,1,.56.57c.07.21,1.79,5.08,6.89,4.14s5.23-6.21,5.23-6.43a.91.91,0,0,1,.35-.72.9.9,0,0,1,.77-.17l1.75.41a.92.92,0,0,1,.68,1.1.91.91,0,0,1-1.1.68l-.71-.17A8.14,8.14,0,0,1,269,318Z" fill="#1e82b9"/><path d="M222.53,329.9l11.15,8.22a4.53,4.53,0,0,0,6.31-1h0a4.53,4.53,0,0,0-1-6.31l-11.15-8.22" fill="#cce7f3"/><path d="M221.83,330.29a.81.81,0,0,1,1.18-1l11.15,8.22a3.68,3.68,0,0,0,2.75.67,3.59,3.59,0,0,0,2.43-1.46,3.64,3.64,0,0,0,.68-2.75,3.71,3.71,0,0,0-1.46-2.43l-11.15-8.22a.8.8,0,1,1,1-1.29l11.15,8.22a5.33,5.33,0,0,1,1.12,7.43,5.31,5.31,0,0,1-7.43,1.12l-11.15-8.22A.78.78,0,0,1,221.83,330.29Z" fill="#8bcae8"/><path d="M396.08,351.1a18.63,18.63,0,0,0-11.17-5.53c-4.91-.64-9.54.39-14.26,1.67l-.19.05h-.1c-6.51.65-14.86,4.39-20.78,1,10.33-9.45,22.08-20.27,22.08-20.27L351.27,305c-.12,0-1.48,1-3.61,2.53-6.71-7.61-13.94-8.87-22.38-5.94-9,3.14-17,11.59-14.89,21.7a35.56,35.56,0,0,0,3.07,8.4c.18.36.37.75.58,1.12l-2.47,1.88L333,360.59a2,2,0,0,0,2.84.22c1.35-1.19,3.48-3.11,6.05-5.44a18.16,18.16,0,0,0,8.78,3.37,36.07,36.07,0,0,0,14.87-2.07c4.76-1.55,9.26-3.89,14.32-4.36,3.81-.35,8.65.22,11.08,3.5a3.53,3.53,0,0,0,5.24.56C397.84,354.83,397.52,352.63,396.08,351.1Zm-76.85-22.24a19.52,19.52,0,0,1-3-9.28,7.45,7.45,0,0,1,.39-3.22,7.78,7.78,0,0,1,1.86-2.48c6.6-6.45,17.5-12.21,23.89-3.53l.51.68C335.91,316.25,326,323.72,319.23,328.86Z" fill="#f8b500"/><path d="M397,352.52l0-.09c-.06-.1-.11-.21-.17-.32s-.11-.22-.18-.33l0,0a3,3,0,0,0-1.12-.94h0l-.69-.23h0l-.74,0c-.14,0-.24.05-.41.09a2.15,2.15,0,0,0-.41.09c-.16.07-.5.25-.72.38a4.31,4.31,0,0,0-.62.51,4.75,4.75,0,0,0-.4.38,7,7,0,0,0-.5.75l-.06.12v0l-.21.66a2.1,2.1,0,0,0,0,.75.51.51,0,0,0,0,.13c0,.21.09.48.15.7l0,0a.49.49,0,0,0,0,.11c0,.05.06.1.08.15a2.17,2.17,0,0,0,.41.95,2.11,2.11,0,0,0,.8.74,2.17,2.17,0,0,0,1,.43,2.9,2.9,0,0,0,2-.37,3.26,3.26,0,0,0,.48-.27l0,0c.18-.15.39-.34.55-.5l.07-.07a5.08,5.08,0,0,0,.49-.75.89.89,0,0,0,.08-.17,5.08,5.08,0,0,0,.28-.86,6.15,6.15,0,0,0,.06-.9,1.34,1.34,0,0,0,0-.2A5.58,5.58,0,0,0,397,352.52Z" fill="#e08800"/><path d="M340.82,355.85c1.65-1.32,7.42-5.87,8.76-7.52" fill="none" stroke="#e08800" stroke-linecap="round" stroke-miterlimit="10" stroke-width="1.26"/><path d="M156.73,420.63s29.27-.35,34.88,9.24c3.16,5.41,3.21,16.16-13.52,17.54-14.3,1.17-13.73-5.69-11-7.41,3.85-2.46,14.73,2.49,16.71-3.82s-6.32-6.79-25.84-6.53-1.2-9-1.2-9" fill="#cce7f3"/><path d="M175,448.34c-7.4,0-9.47-2.57-10-4.24a4.2,4.2,0,0,1,1.68-4.77c1.74-1.11,4.45-.92,7.33-.72,4.86.34,8.11.33,9-2.67.51-1.62.14-2.38-.18-2.82-2.07-2.76-11.62-2.85-24.89-2.67-6.27.08-9.27-.75-9.75-2.7-.75-3,6.07-6.77,8.18-7.83l.16-.09h.19c1.21,0,29.8-.24,35.58,9.64a12,12,0,0,1,.56,11.35c-1.53,2.94-5.32,6.61-14.71,7.38C177,448.29,176,448.34,175,448.34Zm-4.22-8.29a6.38,6.38,0,0,0-3.27.62,2.56,2.56,0,0,0-1,2.92c.31.91,2.06,3.8,11.56,3,6.86-.56,11.5-2.82,13.43-6.53,1.81-3.47.85-7.45-.53-9.8-5.09-8.71-31.51-8.88-34-8.86-3.74,1.92-7.48,4.74-7.18,5.95.06.27.78,1.58,8.18,1.49,16.56-.22,23.85.19,26.18,3.31a4.54,4.54,0,0,1,.43,4.25c-1.39,4.42-6.33,4.08-10.68,3.78C172.8,440.12,171.74,440.05,170.76,440.05Z" fill="#8bcae8"/><path d="M141.12,445.58a31.47,31.47,0,0,0,3.53-62.75c-4.1-5-12.13-9.15-21.61-9.15-12.38,0-23.31,6.22-26.46,16.11-13,1.41-23.08,16.52-23.08,29.88a25.9,25.9,0,0,0,25.9,25.91Z" fill="#cce7f3"/><path d="M141.12,446.38H99.4a26.74,26.74,0,0,1-26.7-26.71c0-13.09,9.92-28.8,23.29-30.61,3.37-9.7,14.16-16.18,27.05-16.18,8.66,0,17.25,3.6,22,9.2a32.27,32.27,0,0,1-3.94,64.3ZM123,374.48c-12.41,0-22.74,6.25-25.7,15.55l-.15.5-.52.05c-12.81,1.39-22.38,16.5-22.38,29.09A25.14,25.14,0,0,0,99.4,444.78h41.72a30.68,30.68,0,0,0,3.44-61.16l-.32,0-.21-.25C139.61,378,131.37,374.48,123,374.48Z" fill="#8bcae8"/><path d="M98.86,405.05s-8.6-6.18-11-4.43S86,410.33,86,410.33" fill="#cce7f3"/><path d="M86,411.12a.8.8,0,0,1-.79-.74c-.06-.86-.51-8.45,2.15-10.4s9.8,2.89,11.93,4.42a.8.8,0,0,1-.93,1.29c-3.91-2.8-8.87-5.3-10.05-4.43-1.48,1.09-1.71,6.1-1.51,9a.8.8,0,0,1-.74.85Z" fill="#8bcae8"/><path d="M138.14,409.27s-1.18-8.44-4.1-8.93-8.24,5.44-8.24,5.44" fill="#cce7f3"/><path d="M138.14,410.07a.8.8,0,0,1-.79-.69c-.46-3.26-1.83-8-3.44-8.26-1.8-.29-5.57,3-7.52,5.19a.8.8,0,0,1-1.13.06.81.81,0,0,1-.06-1.13c.58-.64,5.76-6.23,9-5.69s4.55,8.1,4.76,9.61a.8.8,0,0,1-.68.9Z" fill="#8bcae8"/><line x1="131.08" y1="422.01" x2="142.87" y2="419.62" fill="#cce7f3"/><path d="M131.08,422.81a.8.8,0,0,1-.16-1.58l11.8-2.39a.8.8,0,0,1,.94.62.81.81,0,0,1-.63.94l-11.79,2.39Z" fill="#8bcae8"/><line x1="131.42" y1="426.11" x2="143.42" y2="427.09" fill="#cce7f3"/><path d="M143.42,427.89h-.07l-12-1a.81.81,0,0,1-.73-.86.78.78,0,0,1,.86-.73l12,1a.8.8,0,0,1-.06,1.59Z" fill="#8bcae8"/><line x1="89.99" y1="421.7" x2="78.19" y2="419.31" fill="#cce7f3"/><path d="M90,422.5l-.16,0L78,420.09a.8.8,0,0,1-.62-.94.79.79,0,0,1,.94-.62l11.79,2.39a.81.81,0,0,1,.63.94A.8.8,0,0,1,90,422.5Z" fill="#8bcae8"/><line x1="89.64" y1="425.81" x2="77.65" y2="426.78" fill="#cce7f3"/><path d="M77.64,427.58a.8.8,0,0,1-.06-1.59l12-1a.79.79,0,0,1,.86.73.8.8,0,0,1-.73.86l-12,1Z" fill="#8bcae8"/><path d="M123.82,437s-11-.36-11.22,3.22c-.24,3.23,2.67,5.36,11.24,5.36" fill="#cce7f3"/><path d="M123.84,446.38c-5.6,0-9.16-.9-10.87-2.74a4.49,4.49,0,0,1-1.17-3.48c.31-4.13,10.08-4,12-4a.79.79,0,0,1,.77.82.75.75,0,0,1-.82.77c-4.11-.14-10.26.56-10.4,2.48a2.9,2.9,0,0,0,.74,2.27c1.38,1.48,4.65,2.23,9.71,2.23a.8.8,0,0,1,0,1.6Z" fill="#8bcae8"/><path d="M98,436.91s10.86-.36,11.09,3.31c.2,3.33-2.67,5.23-11.24,5.23" fill="#cce7f3"/><path d="M97.89,446.25a.8.8,0,1,1,0-1.6c5.13,0,8.39-.71,9.71-2.11a2.86,2.86,0,0,0,.74-2.27c-.13-2-6.2-2.71-10.28-2.57h0a.8.8,0,0,1,0-1.59c1.95-.07,11.66-.17,11.91,4.06a4.41,4.41,0,0,1-1.16,3.46C107.09,445.42,103.63,446.25,97.89,446.25Z" fill="#8bcae8"/><path d="M108.2,430.61a3.85,3.85,0,0,1-3.57-2.71.81.81,0,0,1,.53-1,.8.8,0,0,1,1,.53,2.25,2.25,0,0,0,2,1.58A1.91,1.91,0,0,0,110,427.5a.79.79,0,1,1,1.55.33A3.48,3.48,0,0,1,108.2,430.61Z" fill="#0d74b4"/><path d="M113.47,430.61a3.83,3.83,0,0,1-3.57-2.71.8.8,0,1,1,1.52-.47,2.27,2.27,0,0,0,2,1.58,1.9,1.9,0,0,0,1.83-1.51.8.8,0,0,1,1.56.33A3.49,3.49,0,0,1,113.47,430.61Z" fill="#0d74b4"/><path d="M96.61,419.59a4.66,4.66,0,0,0,8.67,0" fill="none" stroke="#0d74b4" stroke-linecap="round" stroke-linejoin="round" stroke-width="1.47"/><path d="M115,419.59a4.66,4.66,0,0,0,8.67,0" fill="none" stroke="#0d74b4" stroke-linecap="round" stroke-linejoin="round" stroke-width="1.47"/><polygon points="714.99 0.61 714.99 483.06 691.38 483.06 691.38 24.87 23.61 24.87 23.61 0.61 714.99 0.61" fill="#e6e6e6"/><rect x="-0.02" y="1.29" width="23.63" height="23.58" fill="#fff"/><rect x="691.38" y="483.06" width="23.6" height="23.55" fill="#fff"/><path d="M690.89,25.37V504.75H.49V25.37h690.4m.5-.5H0V505.25h691.4V24.87Z" fill="#e6e6e6"/></svg>